<svg
    xmlns="http://www.w3.org/2000/svg"
    viewBox="0 0 150 65"
    className="h-20 md:h-28 xl:h-40 grow w-auto"
>
    <path
        className="fill-slate-800"
        d="m 14.009673,0.0024716 c -2.288699,0 -4.3870855,0.33242982 -6.2741499,0.99728947 C 5.8731746,1.6399047 4.3531423,2.5815833 3.2100286,3.8359188 v 0.00618 c -1.1332273,1.2704 -1.7128169,2.8509864 -1.7128169,4.651545 0,1.6905722 0.5066775,3.1475792 1.5138533,4.2956362 0.9935821,1.131991 2.3850913,2.010644 4.1423969,2.650788 1.7424761,0.633965 3.7864871,1.107275 6.1320331,1.417461 h 0.0074 c 1.899423,0.231094 3.492367,0.475782 4.789956,0.730357 h 0.0074 0.0074 c 1.30006,0.224915 2.255333,0.561052 2.86211,0.966394 l 0.01607,0.0074 0.0062,0.0087 c 0.599363,0.36456 0.85023,0.813155 0.85023,1.557106 0,0.872474 -0.317601,1.539805 -1.019534,2.134224 -0.0012,0.0012 -0.0037,-0.0012 -0.0062,0 -0.0025,0.0012 0.0025,0.0062 0,0.0074 -0.7353,0.591947 -1.689337,1.0529 -2.871996,1.371736 -1.195017,0.297828 -2.433288,0.451067 -3.733348,0.451067 -2.284991,0 -4.2424963,-0.428822 -5.8898158,-1.26175 C 6.6628499,21.979914 5.0970931,20.78984 3.6079557,19.250035 L 3.2174434,18.844693 2.870184,19.294524 -5.761714e-4,23.094604 0.28118591,23.397375 c 1.77337099,1.905602 3.81985349,3.290932 6.13326849,4.142397 2.3035286,0.848994 4.8851116,1.269165 7.7410426,1.269165 2.622364,0 4.927129,-0.368268 6.900699,-1.11469 1.971099,-0.746423 3.519555,-1.816624 4.612001,-3.210605 1.119633,-1.395217 1.691808,-3.047479 1.691808,-4.893762 0,-1.43847 -0.358382,-2.660675 -1.099861,-3.608532 -0.0012,-0.0025 -0.0062,0.0012 -0.0074,0 -0.69699,-0.949094 -1.670799,-1.690573 -2.885589,-2.207137 -1.172773,-0.5351 -2.500021,-0.931792 -3.969386,-1.195017 h -0.01606 C 17.932117,12.29496 16.430622,12.057687 14.879695,11.878496 h -0.0074 C 13.243512,11.67459 11.805043,11.418779 10.569244,11.117244 h -0.0062 C 9.3791352,10.820653 8.4745306,10.419018 7.8553955,9.9370565 7.2931072,9.4575667 7.0274105,8.8680907 7.0274105,8.0314551 7.0274105,7.362888 7.2720986,6.835202 7.8319154,6.3421184 8.4028543,5.84162 9.2061234,5.4461644 10.261495,5.1779961 h 0.0062 c 1.057844,-0.29412 2.268927,-0.4498307 3.624598,-0.4498307 2.003229,0 3.716046,0.3608532 5.159459,1.0689658 1.491609,0.7217064 2.711342,1.6572059 3.669086,2.810206 l 0.353438,0.430058 3.424398,-3.755592 -0.244688,-0.3274866 C 25.037939,3.3601364 23.378262,2.1404032 21.30212,1.2864663 19.24328,0.42511472 16.814935,0.0024716 14.009673,0.0024716 Z"
    ></path>
    <path
        className="fill-slate-800"
        d="M 39.074219,0.00369794 V 28.800573 h 5.328125 V 0.00369794 Z m 25.880859,0 V 20.669714 L 46.400391,2.115026 v 8.128907 l 18.552734,18.55664 H 70.28125 V 0.00369794 Z"
    ></path>
    <path
        className="fill-slate-800"
        d="M 93.918882,0.0037074 93.974493,0.12110826 79.987724,28.800287 h 5.895995 L 96.926815,6.166635 107.96744,28.800287 h 5.896 L 99.871723,0.11987246 99.929806,0.0024716 h -0.113693 -5.784774 z"
    ></path>
    <path
        className="fill-slate-800"
        d="m 123.56075,13.265062 v 15.533989 h 5.32752 V 18.588883 h 11.81671 c 5.1298,-0.0012 9.29444,-4.159698 9.29444,-9.2944417 C 149.99942,4.1596981 145.83849,0 140.70498,0 h -11.81671 -5.32752 v 5.3299994 h 17.14176 c 2.1886,0 3.96568,1.7758425 3.96568,3.9656777 10e-4,2.1898349 -1.77461,3.9681499 -3.96568,3.9681499 z"
    ></path>
    <circle
        className="fill-cyan-500"
        cx="96.944115"
        cy="19.8"
        r="3.25"
    ></circle>
    <path
        className="fill-slate-200"
        d="m 9.380371,36.20095 c -2.2392671,0 -4.0422972,1.801794 -4.0422972,4.042297 V 60.957703 C 5.3380738,63.198206 7.1411039,65 9.380371,65 h 4.134982 V 59.673708 H 10.66313 V 41.52477 h 2.853459 v -5.326292 z"
    ></path>
    <path
        className="fill-cyan-500"
        d="m 21.127872,36.20095 v 17.404987 c -0.0012,0.05314 -0.0012,0.105043 -0.0025,0.156946 0,6.204945 5.028464,11.235881 11.233409,11.23341 6.203709,0 11.230938,-5.028465 11.230938,-11.23341 0,-6.202473 -5.028465,-11.229701 -11.230938,-11.230937 -0.03337,0 -0.0655,0 -0.09886,0 -2.052661,0.02101 -4.06207,0.599362 -5.807017,1.67945 V 36.20095 Z M 32.35881,47.855766 c 3.262508,0 5.905882,2.644609 5.905882,5.904646 0.0012,3.26498 -2.643374,5.908353 -5.905882,5.908353 -3.262508,0 -5.907117,-2.645845 -5.905881,-5.908353 0,-3.260037 2.643373,-5.904646 5.905881,-5.904646 z"
    ></path>
    <path
        className="fill-cyan-500"
        d="m 51.199796,46.412353 v 8.916287 h 0.0025 c 0,5.336179 4.325295,9.663945 9.663945,9.665181 5.33865,0 9.666417,-4.327767 9.666417,-9.665181 V 46.412353 H 65.20513 v 8.916287 c 0,2.394978 -1.942675,4.341361 -4.340125,4.340125 -2.396213,-0.0012 -4.337653,-1.942675 -4.337653,-4.340125 v -8.916287 z"
    ></path>
    <path
        className="fill-cyan-500"
        d="m 81.343395,36.20095 c -1.775843,0.02719 -3.198247,1.474307 -3.198247,3.248914 0,1.79438 1.453299,3.248915 3.248915,3.248915 1.793144,0 3.246443,-1.454535 3.248914,-3.248915 -0.0025,-1.791908 -1.45577,-3.247679 -3.248914,-3.248914 -0.01854,0 -0.03337,0 -0.05067,0 z m -2.613714,10.208932 v 18.586411 h 5.327528 V 46.409882 Z"
    ></path>
    <path
        className="fill-cyan-500"
        d="m 92.253025,36.20095 v 22.176405 c 0,2.592706 1.062787,4.933308 2.775604,6.616466 l 3.76795,-3.76795 c -0.747658,-0.72047 -1.218498,-1.727646 -1.218498,-2.850987 V 36.20095 Z"
    ></path>
    <path
        className="fill-cyan-500"
        d="m 123.54592,36.203421 v 8.007975 c -1.74742,-1.080088 -3.75559,-1.662149 -5.80949,-1.67945 -0.0334,0 -0.0667,0 -0.0989,0 -6.2037,0.0012 -11.23093,5.028464 -11.23093,11.230937 -10e-4,6.204945 5.02723,11.23341 11.23093,11.23341 6.20495,0.0025 11.23341,-5.025993 11.23341,-11.230938 v -0.0025 -17.559462 z m -5.90836,11.652345 c 3.26128,0 5.90465,2.644609 5.90589,5.904646 0,3.26498 -2.64585,5.908353 -5.90589,5.908353 -3.26374,0 -5.90835,-2.645845 -5.90588,-5.908353 0,-3.260037 2.64461,-5.904646 5.90588,-5.904646 z"
    ></path>
    <path
        className="fill-slate-200"
        d="m 140.616,36.20095 c 2.24051,0 4.0423,1.801794 4.0423,4.042297 V 60.957703 C 144.6583,63.198206 142.85403,65 140.616,65 h -4.13498 v -5.326292 h 2.85346 V 41.52477 h -2.85346 v -5.326292 z"
    ></path>
</svg>